<svg width="40" height="40" viewBox="0 0 40 40" fill="none" xmlns="http://www.w3.org/2000/svg">
<rect width="40" height="40" rx="20" fill="white" fill-opacity="0.08"/>
<path fill-rule="evenodd" clip-rule="evenodd" d="M11 20.0503C11 24.5248 14.2498 28.2455 18.5 29V22.4998H16.25V20H18.5V17.9998C18.5 15.7498 19.9497 14.5002 22.0002 14.5002C22.6497 14.5002 23.3503 14.6 23.9998 14.6997V17H22.85C21.7498 17 21.5 17.5497 21.5 18.2502V20H23.9L23.5002 22.4998H21.5V29C25.7502 28.2455 29 24.5255 29 20.0503C29 15.0725 24.95 11 20 11C15.05 11 11 15.0725 11 20.0503Z" fill="white"/>
</svg>
