<svg width="40" height="40" viewBox="0 0 40 40" fill="none" xmlns="http://www.w3.org/2000/svg">
<rect width="40" height="40" rx="20" fill="white" fill-opacity="0.08"/>
<path fill-rule="evenodd" clip-rule="evenodd" d="M19.8835 18.5669C18.745 18.5669 17.8187 19.4916 17.8187 20.6294C17.8187 21.7671 18.745 22.6919 19.8835 22.6919C21.022 22.6919 21.9475 21.7671 21.9475 20.6294C21.9475 19.4916 21.022 18.5669 19.8835 18.5669Z" fill="white"/>
<path fill-rule="evenodd" clip-rule="evenodd" d="M23.648 17.6886C23.2205 17.6886 22.8718 17.3421 22.8718 16.9168C22.8718 16.4901 23.2205 16.1436 23.648 16.1436C24.0755 16.1436 24.4235 16.4901 24.4235 16.9168C24.4235 17.3421 24.0755 17.6886 23.648 17.6886ZM19.883 23.8168C18.125 23.8168 16.694 22.3873 16.694 20.6293C16.694 18.8713 18.125 17.4418 19.883 17.4418C21.6418 17.4418 23.072 18.8713 23.072 20.6293C23.072 22.3873 21.6418 23.8168 19.883 23.8168ZM23.1628 13.2568H16.8365C14.4673 13.2568 12.875 14.9233 12.875 17.4043V23.3593C12.875 25.8396 14.4673 27.5068 16.8365 27.5068H23.162C25.532 27.5068 27.125 25.8396 27.125 23.3593V17.4043C27.125 14.9233 25.5328 13.2568 23.1628 13.2568Z" fill="white"/>
</svg>
