<svg width="40" height="40" viewBox="0 0 40 40" fill="none" xmlns="http://www.w3.org/2000/svg">
<rect width="40" height="40" rx="20" fill="white" fill-opacity="0.08"/>
<g clip-path="url(#clip0_9812_1623)">
<path fill-rule="evenodd" clip-rule="evenodd" d="M13.8126 14.8459C13.8126 14.5717 13.9215 14.3087 14.1154 14.1148C14.3093 13.9209 14.5723 13.812 14.8465 13.812H25.1526C25.2885 13.8118 25.4231 13.8384 25.5487 13.8902C25.6743 13.9421 25.7884 14.0182 25.8846 14.1143C25.9807 14.2103 26.057 14.3244 26.109 14.4499C26.161 14.5754 26.1877 14.71 26.1876 14.8459V25.152C26.1878 25.2879 26.1611 25.4225 26.1092 25.5481C26.0573 25.6737 25.9811 25.7879 25.885 25.884C25.7889 25.9801 25.6748 26.0564 25.5493 26.1084C25.4237 26.1604 25.2891 26.1871 25.1532 26.187H14.8465C14.7107 26.187 14.5762 26.1603 14.4507 26.1083C14.3252 26.0563 14.2112 25.9801 14.1152 25.884C14.0192 25.7879 13.9431 25.6739 13.8912 25.5484C13.8392 25.4229 13.8125 25.2884 13.8126 25.1526V14.8459ZM18.7109 18.5303H20.3866V19.3718C20.6284 18.888 21.2472 18.4526 22.177 18.4526C23.9596 18.4526 24.382 19.4162 24.382 21.1841V24.459H22.5781V21.5869C22.5781 20.58 22.3362 20.0119 21.7219 20.0119C20.8697 20.0119 20.5154 20.6245 20.5154 21.5869V24.459H18.7109V18.5303ZM15.6171 24.382H17.4216V18.4526H15.6171V24.3814V24.382ZM17.6798 16.5188C17.6832 16.6733 17.6557 16.8269 17.5989 16.9706C17.5422 17.1144 17.4573 17.2453 17.3492 17.3558C17.2411 17.4663 17.1121 17.554 16.9696 17.614C16.8272 17.6739 16.6742 17.7047 16.5197 17.7047C16.3651 17.7047 16.2121 17.6739 16.0697 17.614C15.9272 17.554 15.7982 17.4663 15.6901 17.3558C15.582 17.2453 15.4971 17.1144 15.4404 16.9706C15.3836 16.8269 15.3561 16.6733 15.3595 16.5188C15.3662 16.2155 15.4913 15.9269 15.7082 15.7148C15.925 15.5027 16.2163 15.3839 16.5197 15.3839C16.823 15.3839 17.1143 15.5027 17.3311 15.7148C17.548 15.9269 17.6731 16.2155 17.6798 16.5188Z" fill="white"/>
</g>
<defs>
<clipPath id="clip0_9812_1623">
<rect width="13.5" height="13.5" fill="white" transform="translate(13.25 13.25)"/>
</clipPath>
</defs>
</svg>
