<svg width="40" height="40" viewBox="0 0 40 40" fill="none" xmlns="http://www.w3.org/2000/svg">
<rect width="40" height="40" rx="20" fill="white" fill-opacity="0.08"/>
<path fill-rule="evenodd" clip-rule="evenodd" d="M27.0664 15.2487C26.9869 15.1242 26.8429 15.0545 26.6944 15.0792L25.1921 15.3027C24.7684 14.8287 23.4709 13.6197 21.6806 14.1612C20.1304 14.6367 19.3924 16.2852 19.3481 17.5437C17.4259 17.1912 15.6319 16.2447 14.2579 14.8497C14.1596 14.75 14.0134 14.7132 13.8784 14.7552C13.7434 14.7972 13.6444 14.9112 13.6211 15.05C12.9349 19.1322 13.8214 21.8569 16.4089 23.5669C15.4481 24.0964 14.3464 24.3687 13.2619 24.3297C13.1134 24.3289 12.9776 24.4077 12.9131 24.5404C12.8479 24.6724 12.8674 24.8307 12.9619 24.9447C14.0734 26.2812 16.1674 26.7394 17.8361 26.7394C18.0289 26.7394 18.2156 26.7334 18.3949 26.7222C20.8249 26.5707 22.8281 25.5672 24.1879 23.8189C25.4756 22.1637 26.0989 19.8889 25.9421 17.3952L25.9376 17.3585L27.0626 15.6567C27.1444 15.5337 27.1459 15.3732 27.0664 15.2487Z" fill="white"/>
</svg>
