<svg width="32" height="32" viewBox="0 0 32 32" fill="none" xmlns="http://www.w3.org/2000/svg">
<circle cx="16" cy="8.00008" r="5.33333" fill="#14B8A6"/>
<path fill-rule="evenodd" clip-rule="evenodd" d="M22 29.3333C19.8001 29.3333 18.7002 29.3333 18.0168 28.6499C17.3333 27.9665 17.3333 26.8666 17.3333 24.6667C17.3333 22.4668 17.3333 21.3668 18.0168 20.6834C18.7002 20 19.8001 20 22 20C24.1999 20 25.2998 20 25.9833 20.6834C26.6667 21.3668 26.6667 22.4668 26.6667 24.6667C26.6667 26.8666 26.6667 27.9665 25.9833 28.6499C25.2998 29.3333 24.1999 29.3333 22 29.3333ZM24.6241 23.6611C24.9278 23.3573 24.9278 22.8649 24.6241 22.5611C24.3203 22.2574 23.8279 22.2574 23.5241 22.5611L20.963 25.1223L20.4759 24.6352C20.1722 24.3315 19.6797 24.3315 19.376 24.6352C19.0722 24.939 19.0722 25.4314 19.376 25.7352L20.413 26.7722C20.7167 27.0759 21.2092 27.0759 21.5129 26.7722L24.6241 23.6611Z" fill="#14B8A6"/>
<path d="M20.553 18.0098C19.2062 17.5789 17.6533 17.3333 16 17.3333C10.8454 17.3333 6.66669 19.7211 6.66669 22.6666C6.66669 25.5207 10.5899 27.8511 15.5229 27.9931C15.4867 27.8247 15.4587 27.6575 15.4366 27.4934C15.3331 26.7231 15.3332 25.7819 15.3334 24.7812V24.5519C15.3332 23.5512 15.3331 22.6101 15.4366 21.8398C15.5519 20.9826 15.8273 20.0444 16.6026 19.2691C17.3778 18.4939 18.3161 18.2184 19.1732 18.1032C19.5892 18.0472 20.0549 18.0216 20.553 18.0098Z" fill="#14B8A6"/>
</svg>
