<svg width="32" height="32" viewBox="0 0 32 32" fill="none" xmlns="http://www.w3.org/2000/svg">
<path d="M16.1455 9.91198C17.0973 7.61375 19.3613 6 21.9998 6C24.6383 6 26.9023 7.61375 27.8541 9.91198C28.0654 10.4222 28.6504 10.6646 29.1606 10.4533C29.6709 10.2419 29.9132 9.657 29.7019 9.14674C28.4514 6.1272 25.4752 4 21.9998 4C18.5244 4 15.5482 6.1272 14.2977 9.14674C14.0864 9.657 14.3288 10.2419 14.839 10.4533C15.3493 10.6646 15.9342 10.4222 16.1455 9.91198Z" fill="#14B8A6"/>
<path fill-rule="evenodd" clip-rule="evenodd" d="M3.44774 16.4477C2.66669 17.2288 2.66669 18.4858 2.66669 21C2.66669 23.5142 2.66669 24.7712 3.44774 25.5523C4.22878 26.3333 5.48586 26.3333 8.00002 26.3333H24C26.5142 26.3333 27.7713 26.3333 28.5523 25.5523C29.3334 24.7712 29.3334 23.5142 29.3334 21C29.3334 18.4858 29.3334 17.2288 28.5523 16.4477C27.7713 15.6667 26.5142 15.6667 24 15.6667H23V11.6667C23 11.1144 22.5523 10.6667 22 10.6667C21.4477 10.6667 21 11.1144 21 11.6667V15.6667H8.00002C5.48586 15.6667 4.22878 15.6667 3.44774 16.4477ZM8.00002 22.3333C8.7364 22.3333 9.33335 21.7364 9.33335 21C9.33335 20.2636 8.7364 19.6667 8.00002 19.6667C7.26364 19.6667 6.66669 20.2636 6.66669 21C6.66669 21.7364 7.26364 22.3333 8.00002 22.3333ZM12 22.3333C12.7364 22.3333 13.3334 21.7364 13.3334 21C13.3334 20.2636 12.7364 19.6667 12 19.6667C11.2636 19.6667 10.6667 20.2636 10.6667 21C10.6667 21.7364 11.2636 22.3333 12 22.3333Z" fill="#14B8A6"/>
<path d="M19.1204 11.4909C19.4845 10.2433 20.6377 9.33333 22.0008 9.33333C23.3639 9.33333 24.5171 10.2433 24.8812 11.4909C25.0359 12.0211 25.5911 12.3255 26.1213 12.1708C26.6514 12.0161 26.9558 11.4609 26.8011 10.9307C26.1948 8.85292 24.2765 7.33333 22.0008 7.33333C19.725 7.33333 17.8068 8.85292 17.2005 10.9307C17.0458 11.4609 17.3501 12.0161 17.8803 12.1708C18.4105 12.3255 18.9657 12.0211 19.1204 11.4909Z" fill="#14B8A6"/>
</svg>
