<svg width="32" height="32" viewBox="0 0 32 32" fill="none" xmlns="http://www.w3.org/2000/svg">
<path d="M9.33331 6.43923C9.33331 8.50294 11.6346 10.6769 13.533 12.1192C14.5985 12.9287 15.1312 13.3334 16 13.3334C16.8688 13.3334 17.4015 12.9287 18.467 12.1192C20.3654 10.6769 22.6666 8.50297 22.6666 6.43921C22.6666 2.71899 18.9999 1.33003 16 4.20388C13.0001 1.33003 9.33331 2.71899 9.33331 6.43923Z" fill="#14B8A6"/>
<path d="M8.34656 28.5178H7.99998C6.7429 28.5178 6.11436 28.5178 5.72384 28.1273C5.33331 27.7368 5.33331 27.1083 5.33331 25.8512V24.3686C5.33331 23.6772 5.33331 23.3316 5.51088 23.0229C5.68846 22.7142 5.95634 22.5584 6.49212 22.2468C10.0194 20.1953 15.0287 19.0404 18.3721 21.0345C18.5967 21.1685 18.7987 21.3302 18.9714 21.5242C19.7155 22.36 19.6613 23.6215 18.8037 24.37C18.6226 24.5281 18.4295 24.6479 18.2351 24.6896C18.3949 24.6711 18.548 24.6499 18.6941 24.6265C19.9093 24.4327 20.9294 23.7833 21.8632 23.0779L24.2728 21.2577C25.1223 20.616 26.3831 20.6159 27.2327 21.2574C27.9976 21.8349 28.2314 22.7859 27.7479 23.561C27.184 24.4649 26.3894 25.6213 25.6266 26.3279C24.8626 27.0355 23.7252 27.6672 22.7966 28.1154C21.768 28.6118 20.6317 28.8979 19.4759 29.085C17.1318 29.4645 14.6887 29.4065 12.3684 28.9285C11.0567 28.6583 9.69437 28.5178 8.34656 28.5178Z" fill="#14B8A6"/>
</svg>
